<svg id="visual" viewBox="0 0 900 600" width="900" height="600" xmlns="http://www.w3.org/2000/svg" xmlns:xlink="http://www.w3.org/1999/xlink" version="1.1"><path d="M0 541L21.5 540.5C43 540 86 539 128.8 535.8C171.7 532.7 214.3 527.3 257.2 525.2C300 523 343 524 385.8 526.3C428.7 528.7 471.3 532.3 514.2 534.3C557 536.3 600 536.7 642.8 534.3C685.7 532 728.3 527 771.2 526.5C814 526 857 530 878.5 532L900 534L900 601L878.5 601C857 601 814 601 771.2 601C728.3 601 685.7 601 642.8 601C600 601 557 601 514.2 601C471.3 601 428.7 601 385.8 601C343 601 300 601 257.2 601C214.3 601 171.7 601 128.8 601C86 601 43 601 21.5 601L0 601Z" fill="#00c8ff" stroke-linecap="round" stroke-linejoin="miter"></path></svg>