<svg id="visual" viewBox="0 0 900 600" width="900" height="600" xmlns="http://www.w3.org/2000/svg" xmlns:xlink="http://www.w3.org/1999/xlink" version="1.1"><path d="M0 540L21.5 541.5C43 543 86 546 128.8 544.2C171.7 542.3 214.3 535.7 257.2 535.5C300 535.3 343 541.7 385.8 544.7C428.7 547.7 471.3 547.3 514.2 548.5C557 549.7 600 552.3 642.8 550.7C685.7 549 728.3 543 771.2 538.3C814 533.7 857 530.3 878.5 528.7L900 527L900 601L878.5 601C857 601 814 601 771.2 601C728.3 601 685.7 601 642.8 601C600 601 557 601 514.2 601C471.3 601 428.7 601 385.8 601C343 601 300 601 257.2 601C214.3 601 171.7 601 128.8 601C86 601 43 601 21.5 601L0 601Z" fill="#00c8ff" stroke-linecap="round" stroke-linejoin="miter"></path></svg>