<svg id="visual" viewBox="0 0 900 600" width="900" height="600" xmlns="http://www.w3.org/2000/svg" xmlns:xlink="http://www.w3.org/1999/xlink" version="1.1"><path d="M0 542L30 544C60 546 120 550 180 550.3C240 550.7 300 547.3 360 546C420 544.7 480 545.3 540 542.3C600 539.3 660 532.7 720 533C780 533.3 840 540.7 870 544.3L900 548L900 601L870 601C840 601 780 601 720 601C660 601 600 601 540 601C480 601 420 601 360 601C300 601 240 601 180 601C120 601 60 601 30 601L0 601Z" fill="#54adff" stroke-linecap="round" stroke-linejoin="miter"></path></svg>